<?xml version="1.0"?>
<svg xmlns="http://www.w3.org/2000/svg" xmlns:xlink="http://www.w3.org/1999/xlink" xmlns:svgjs="http://svgjs.com/svgjs" version="1.1" width="512" height="512" x="0" y="0" viewBox="0 0 58 49" style="enable-background:new 0 0 512 512" xml:space="preserve" class=""><g><g xmlns="http://www.w3.org/2000/svg" id="Page-1" fill="none" fill-rule="evenodd"><g id="010---Pancake-Stack" fill-rule="nonzero"><path id="Shape" d="m47.01 28.49c6.69 2.1 10.99 5.36 10.99 9.01 0 6.35-12.98 11.5-29 11.5s-29-5.15-29-11.5c0-3.65 4.3-6.91 10.99-9.01z" fill="#11999e" data-original="#f29c1f" style="" class=""/><path id="Shape" d="m22.34 10.41c-7.16.93-12.25 3.31-12.25 6.09.0791122 1.0101319.6124857 1.9297413 1.45 2.5-.8375143.5702587-1.3708878 1.4898681-1.45 2.5.0791122 1.0101319.6124857 1.9297413 1.45 2.5-.8375143.5702587-1.3708878 1.4898681-1.45 2.5.0314979.7547296.3540533 1.4679356.9 1.99.17137.1824629.3551409.3528686.55.51-.8375143.5702587-1.3708878 1.4898681-1.45 2.5.0791122 1.0101319.6124857 1.9297413 1.45 2.5-.8375143.5702587-1.3708878 1.4898681-1.45 2.5 0 3.59 8.46 6.5 18.91 6.5s18.91-2.91 18.91-6.5c-.0791122-1.0101319-.6124857-1.9297413-1.45-2.5.8375143-.5702587 1.3708878-1.4898681 1.45-2.5-.0791122-1.0101319-.6124857-1.9297413-1.45-2.5.1948591-.1571314.37863-.3275371.55-.51.5459467-.5220644.8685021-1.2352704.9-1.99-.0791122-1.0101319-.6124857-1.9297413-1.45-2.5.8375143-.5702587 1.3708878-1.4898681 1.45-2.5-.0791122-1.0101319-.6124857-1.9297413-1.45-2.5.8375143-.5702587 1.3708878-1.4898681 1.45-2.5 0-2.2-3.17-4.14-8.03-5.31z" fill="#f0c419" data-original="#f0c419" style="" class=""/><path id="Shape" d="m52 40.86c-.4424116.0010063-.8329034-.288812-.9600721-.7125538s.0392139-.8806831.4090721-1.1234462c.4886971-.3418869.7763159-.9036424.768-1.5.0083425-.6038546-.2745251-1.1748007-.76-1.534-.4504916-.3233441-.5621496-.9463248-.252-1.406.146359-.2164684.3733323-.3652871.6302048-.4132041.2568725-.0479169.5222351.0090615.7367952.1582041l.035.024c1.0186143.7374365 1.618279 1.9214949 1.61 3.179.0087527 1.229726-.5823505 2.3865569-1.584 3.1l-.084.057c-.1623121.1095193-.3532052.1689778-.549.171z" fill="#ffffff" data-original="#ffffff" style="" class=""/><path id="Shape" d="m47.91 36.5c0 3.59-8.46 6.5-18.91 6.5s-18.91-2.91-18.91-6.5c.0791122-1.0101319.6124857-1.9297413 1.45-2.5 2.85 2.35 9.59 4 17.46 4s14.61-1.65 17.46-4c.8375143.5702587 1.3708878 1.4898681 1.45 2.5z" fill="#f3d55b" data-original="#f3d55b" style="" class=""/><path id="Shape" d="m47.91 16.5c-.0791122 1.0101319-.6124857 1.9297413-1.45 2.5-2.85 2.35-9.59 4-17.46 4s-14.61-1.65-17.46-4c-.8375143-.5702587-1.3708878-1.4898681-1.45-2.5 0-2.78 5.09-5.16 12.25-6.09-1.31 2.8-1.99 6.18-.46 7.71 2.34 2.34 8.97-.48 11.31-2.83 1.0502268-1.0387233 1.6713488-2.434463 1.74-3.91l.03.03c1.0965464.9385494 2.4967368 1.4467403 3.94 1.43.2762584.0105005.5443883-.0946412.7398736-.2901264.1954852-.1954853.3006269-.4636152.2901264-.7398736-.01-.19-.02-.4-.05-.62 4.86 1.17 8.03 3.11 8.03 5.31z" fill="#f3d55b" data-original="#f3d55b" style="" class=""/><path id="Shape" d="m33.544 7.461c-.4029806.00074908-.7670346-.24045896-.9234534-.61184433-.1564188-.37138538-.0746342-.80037014.2074534-1.08815567 3.794-3.894 5.567-4.2 6.02-4.2.5522847-.02015839 1.0163416.41121525 1.0365.9635s-.4112153 1.01634161-.9635 1.0365c-.123.026-1.537.389-4.661 3.6-.1885293.19233924-.4466723.30049973-.716.3z" fill="#cb8252" data-original="#cb8252" style=""/><path id="Shape" d="m47.91 26.5c-.0314979.7547296-.3540533 1.4679356-.9 1.99-.17137.1824629-.3551409.3528686-.55.51-2.85 2.35-9.59 4-17.46 4s-14.61-1.65-17.46-4c-.1948591-.1571314-.37863-.3275371-.55-.51-.5459467-.5220644-.8685021-1.2352704-.9-1.99.0791122-1.0101319.6124857-1.9297413 1.45-2.5 2.85 2.35 9.59 4 17.46 4s14.61-1.65 17.46-4c.8375143.5702587 1.3708878 1.4898681 1.45 2.5z" fill="#f3d55b" data-original="#f3d55b" style="" class=""/><path id="Shape" d="m6 40.86c.44241159.0010063.83290335-.288812.96007206-.7125538.12716872-.4237418-.03921387-.8806831-.40907206-1.1234462-.48869708-.3418869-.77631588-.9036424-.768-1.5-.00784671-.603742.27491508-1.1744744.76-1.534.45049156-.3233441.56214956-.9463248.252-1.406-.14635904-.2164684-.37333228-.3652871-.6302048-.4132041-.25687253-.0479169-.52223514.0090615-.7367952.1582041l-.035.024c-1.01770517.738212-1.61711582 1.9217688-1.61 3.179-.00875269 1.229726.58235054 2.3865569 1.584 3.1l.084.057c.16231207.1095193.35320525.1689778.549.171z" fill="#ffffff" data-original="#ffffff" style="" class=""/><path id="Shape" d="m34.93 11.38c-.0686512 1.475537-.6897732 2.8712767-1.74 3.91-2.34 2.35-8.97 5.17-11.31 2.83-1.53-1.53-.85-4.91.46-7.71.589997-1.32033684 1.390406-2.53614786 2.37-3.6 1.0387233-1.05022677 2.434463-1.6713488 3.91-1.74 1.76 1.73 4.92 1.39 4.92 1.39s-.34 3.16 1.39 4.92z" fill="#e64c3c" data-original="#e64c3c" style="" class=""/><path id="Shape" d="m33.54 6.46s-3.16.34-4.92-1.39l-.03-.03c-.9385494-1.09654639-1.4467403-2.4967368-1.43-3.94-.0105005-.27625838.0946412-.54438834.2901264-.73987357.1954853-.19548524.4636152-.30062697.7398736-.29012643 1.4443319-.01268379 2.8442383.49895713 3.94 1.44 1.76 1.75 1.41 4.95 1.41 4.95z" fill="#4fba6f" data-original="#4fba6f" style="" class=""/><path id="Shape" d="m39.93 11.81c.0105005.2762584-.0946412.5443883-.2901264.7398736-.1954853.1954852-.4636152.3006269-.7398736.2901264-1.4432632.0167403-2.8434536-.4914506-3.94-1.43l-.03-.03c-1.73-1.76-1.39-4.92-1.39-4.92s3.2-.35 4.95 1.41c.8211803.9203298 1.3105295 2.08913504 1.39 3.32.03.22.04.43.05.62z" fill="#4fba6f" data-original="#4fba6f" style="" class=""/><g fill="#f3d55b"><circle id="Oval" cx="25" cy="15" r="1" fill="#f3d55b" data-original="#f3d55b" style="" class=""/><circle id="Oval" cx="26" cy="11" r="1" fill="#f3d55b" data-original="#f3d55b" style="" class=""/><circle id="Oval" cx="29" cy="14" r="1" fill="#f3d55b" data-original="#f3d55b" style="" class=""/><circle id="Oval" cx="30" cy="10" r="1" fill="#f3d55b" data-original="#f3d55b" style="" class=""/></g></g></g></g></svg>
